<?xml version="1.0" encoding="UTF-8"?>
<svg version="1.1" xmlns="http://www.w3.org/2000/svg" width="2000" height="2000">
<path d="M0 0 C1.59986755 -0.00101212 1.59986755 -0.00101212 3.23205566 -0.00204468 C20.3568913 0.01512316 37.04471728 0.67541216 54 3.25 C55.13099121 3.41628906 56.26198242 3.58257812 57.42724609 3.75390625 C138.97079344 16.07269645 211.53730621 56.28305444 273.375 109.5625 C274.22118896 110.28953125 274.22118896 110.28953125 275.08447266 111.03125 C286.5984529 121.02051861 297.50959725 131.59658669 308.26806641 142.38769531 C310.38981009 144.51484784 312.51691491 146.63653561 314.64453125 148.7578125 C316.0211544 150.13509583 317.39746766 151.51268899 318.7734375 152.890625 C319.39648773 153.511651 320.01953796 154.132677 320.66146851 154.77252197 C324.970334 159.10409358 329.01974446 163.61608769 333 168.25 C333.9617059 169.35593306 334.92385236 170.46148341 335.88671875 171.56640625 C389.44787777 233.48764035 428.93228815 305.85424806 442.3125 387.25 C442.45985596 388.14227295 442.60721191 389.0345459 442.7590332 389.95385742 C445.53605223 408.16960551 446.37978487 426.40981148 446.3125 444.8125 C446.31067719 445.85693268 446.30885437 446.90136536 446.30697632 447.97744751 C446.25745854 464.90881768 445.51641455 481.48215896 443 498.25 C442.83371094 499.40274414 442.66742187 500.55548828 442.49609375 501.74316406 C433.44821846 563.1179181 410.71607001 622.07376548 379 675.25 C378.21592773 676.56653564 378.21592773 676.56653564 377.41601562 677.90966797 C359.63667554 707.56923745 339.61665442 736.39946573 316.16015625 761.87890625 C314.34944183 763.86643546 312.59066013 765.883251 310.83564401 767.91949993 C307.1990782 772.07764399 303.38051131 776.01017943 299.46953964 779.90909481 C298.74044598 780.63994151 298.01135232 781.3707882 297.26016492 782.12378177 C294.82437733 784.56420928 292.3850647 787.00108167 289.94573975 789.43797302 C288.17778877 791.20779298 286.41005393 792.97782887 284.64251637 794.74806172 C280.80302147 798.59239446 276.96198009 802.43517172 273.1195507 806.27657127 C267.40551316 811.98908112 261.69432826 817.70443665 255.98367109 823.42032552 C245.18992991 834.22372903 234.39276949 845.02371093 223.59448281 855.82257085 C215.25496884 864.16254464 206.91625532 872.50331794 198.57810211 880.84465218 C196.17660986 883.24704199 193.77511374 885.64942793 191.37361646 888.05181271 C190.77657312 888.64907709 190.17952979 889.24634147 189.56439424 889.86170477 C172.7747469 906.65750476 155.98399744 923.45220229 139.19105148 940.24470425 C138.55814395 940.8775962 137.92523641 941.51048816 137.27314986 942.16255866 C134.06541949 945.37020593 130.85768115 948.57784522 127.64994106 951.78548276 C127.01288949 952.42251438 126.37583792 953.059546 125.71948176 953.71588161 C124.43120899 955.00411395 123.14293554 956.2923456 121.85466141 957.58057657 C101.81066622 977.62395899 81.77073543 997.67139735 61.73388672 1017.72192383 C39.21490711 1040.2562693 16.69254738 1062.7872291 -5.83458114 1085.31342846 C-8.23734537 1087.71611807 -10.64009664 1090.11882063 -13.04283905 1092.52153206 C-13.93024565 1093.40892118 -13.93024565 1093.40892118 -14.83557966 1094.31423735 C-24.34865684 1103.82728378 -33.85852446 1113.34353241 -43.36727651 1122.86090178 C-52.92606531 1132.42817394 -62.48860157 1141.99168791 -72.05491766 1151.55143362 C-77.73469813 1157.22752315 -83.41170978 1162.90634884 -89.08473343 1168.58919172 C-93.32550289 1172.83667945 -97.57150428 1177.07889692 -101.81953689 1181.31912196 C-103.53390858 1183.03195696 -105.24660159 1184.74647419 -106.95741656 1186.46286171 C-115.32733658 1194.85823081 -123.6308831 1202.96575263 -133 1210.25 C-134.16421192 1211.24466197 -135.32241979 1212.24650012 -136.46875 1213.26171875 C-145.85814627 1221.56193898 -155.82958461 1228.93948511 -166 1236.25 C-166.71027344 1236.765625 -167.42054688 1237.28125 -168.15234375 1237.8125 C-246.61057728 1294.76516858 -342.21561541 1334.20748022 -442.5 1334.5 C-443.29825195 1334.50067474 -444.09650391 1334.50134949 -444.91894531 1334.50204468 C-547.40776632 1334.36621551 -643.06442158 1289.28071186 -720.48828125 1219.515625 C-722.55938666 1217.64744283 -724.65155379 1215.81243884 -726.7578125 1213.984375 C-731.12225085 1210.17307478 -735.35107952 1206.22893483 -739.5625 1202.25 C-740.27857422 1201.57710937 -740.99464844 1200.90421875 -741.73242188 1200.2109375 C-753.64331548 1188.98283397 -753.64331548 1188.98283397 -758.375 1183.4375 C-761.67784749 1179.60265023 -765.07331464 1175.86084894 -768.49609375 1172.1328125 C-784.21207275 1154.03859643 -798.03806726 1134.37250636 -811 1114.25 C-811.56283691 1113.37939941 -812.12567383 1112.50879883 -812.70556641 1111.61181641 C-819.75498055 1100.64723679 -826.253282 1089.40145778 -832.5625 1078 C-833.07852783 1077.06977524 -833.07852783 1077.06977524 -833.60498047 1076.12075806 C-834.59701633 1074.32793688 -835.58289811 1072.53188619 -836.56640625 1070.734375 C-837.13302979 1069.70022461 -837.69965332 1068.66607422 -838.28344727 1067.60058594 C-839.64908004 1064.9349702 -840.89964105 1062.27819014 -842.10728455 1059.54058838 C-842.64092574 1058.33297033 -842.64092574 1058.33297033 -843.18534756 1057.10095596 C-843.58860052 1056.18473276 -843.58860052 1056.18473276 -844 1055.25 C-821.61845526 1032.8228723 -799.2318296 1010.4008321 -776.83805109 987.98592043 C-774.1968463 985.3422141 -771.55568508 982.69846425 -768.91455078 980.0546875 C-768.3887272 979.5283393 -767.86290362 979.0019911 -767.321146 978.45969296 C-758.79682601 969.92666015 -750.27604372 961.39010308 -741.75655378 952.85224819 C-733.02072075 944.09774047 -724.28111954 935.34700798 -715.5379771 926.59980011 C-710.13908732 921.19816021 -704.74319111 915.79356466 -699.35103534 910.38520241 C-695.22247058 906.24485873 -691.08867904 902.10976152 -686.95286942 897.97665405 C-685.25231675 896.2755485 -683.55349357 894.57271211 -681.85648346 892.86807251 C-679.54959544 890.55131782 -677.23671783 888.24071855 -674.92214966 885.93164062 C-674.24316844 885.24683372 -673.56418722 884.56202682 -672.86463082 883.8564682 C-672.2475711 883.24339058 -671.63051138 882.63031296 -670.99475288 881.99865723 C-670.4608661 881.464011 -669.92697932 880.92936478 -669.37691414 880.37851715 C-668 879.25 -668 879.25 -666 879.25 C-665.96559814 879.83152832 -665.93119629 880.41305664 -665.89575195 881.01220703 C-662.16544035 940.1304166 -632.15809449 988.66846885 -592.31787109 1030.85302734 C-591.1906776 1032.0478775 -590.07287682 1033.25157667 -588.95703125 1034.45703125 C-550.41722993 1074.80466973 -487.63216643 1102.67944006 -432.13671875 1104.46875 C-372.63221926 1105.70019806 -321.4088421 1079.53849472 -279 1039.25 C-273.011372 1033.4401799 -267.12859059 1027.5224788 -261.23057556 1021.62101746 C-259.44635126 1019.83938096 -257.66191386 1018.05795786 -255.87728316 1016.27672845 C-251.50793027 1011.91456069 -247.1408818 1007.55009729 -242.77484074 1003.18461509 C-237.53922282 997.9499163 -232.30072551 992.71810245 -227.06219624 987.48631741 C-214.40940212 974.84952577 -201.76163291 962.20770986 -189.11444146 949.56531139 C-183.12690786 943.58011853 -177.13874333 937.59555707 -171.1505045 931.61106981 C-150.63407001 911.10746292 -130.11868842 890.60280338 -109.60694027 870.09450817 C-108.32126416 868.80905369 -107.03558797 867.52359928 -105.7499117 866.23814495 C-104.46123457 864.94968846 -103.17255753 863.6612319 -101.88388056 862.37277526 C-99.29880975 859.78814699 -96.71373665 857.20352101 -94.12866211 854.61889648 C-93.48772305 853.97806682 -92.84678399 853.33723715 -92.18642254 852.6769884 C-71.39604816 831.89024602 -50.59953373 811.1096611 -29.79933 790.33275474 C-7.78355322 768.34159162 14.22676322 746.34497813 36.23083395 724.34210187 C38.64753116 721.9255761 41.06425037 719.50907232 43.48098564 717.09258461 C44.07600699 716.49761903 44.67102834 715.90265345 45.28408064 715.28965861 C54.84349733 705.73139069 64.40783395 696.17806067 73.97395456 686.62650274 C83.59190479 677.02294099 93.20424938 667.41379654 102.81099302 657.79902431 C108.51175918 652.09381383 114.21661077 646.392763 119.92753522 640.69772062 C124.20006312 636.4361412 128.46463662 632.16669136 132.72626989 627.89421407 C134.44487817 626.17365206 136.16599712 624.45559321 137.88994599 622.74038234 C147.3027292 613.37227485 156.12061781 603.95031618 164 593.25 C164.90223229 592.03427257 165.80466551 590.81869423 166.70729882 589.60326451 C182.95689817 567.60876941 196.25955158 543.16806461 205 517.25 C205.28069336 516.41903809 205.56138672 515.58807617 205.85058594 514.73193359 C222.25327241 465.24373406 219.29339354 413.10487103 196.1875 366.25 C185.31200614 344.74381506 171.23458254 326.01159773 155 308.25 C154.15695312 307.30253906 153.31390625 306.35507812 152.4453125 305.37890625 C141.71196164 293.36463671 129.88338888 282.90540009 117 273.25 C116.42636719 272.81945312 115.85273437 272.38890625 115.26171875 271.9453125 C87.4705911 251.24311809 55.45076378 236.33890134 21 231.25 C20.36876221 231.1564624 19.73752441 231.0629248 19.0871582 230.96655273 C-10.13209908 227.15504694 -40.18254774 231.06314817 -68 240.25 C-69.15943115 240.62632568 -69.15943115 240.62632568 -70.34228516 241.01025391 C-95.74781468 249.38895982 -119.6380296 262.24296926 -141.375 277.75 C-142.03943115 278.22300537 -142.7038623 278.69601074 -143.38842773 279.18334961 C-158.15903904 290.0069981 -170.93492083 302.92894196 -183.79345703 315.89575195 C-185.74853546 317.86076996 -187.70521332 319.82419232 -189.66188049 321.78762817 C-193.84824183 325.9898753 -198.03116491 330.19551847 -202.21194839 334.40331459 C-208.81877025 341.05233106 -215.43562538 347.69131385 -222.05392456 354.3289032 C-224.32413901 356.60599405 -226.59427541 358.88316271 -228.86437798 361.1603651 C-229.7148157 362.0134603 -229.7148157 362.0134603 -230.58243398 362.88378975 C-237.00961909 369.33139624 -243.43441967 375.78137678 -249.85839844 382.23217773 C-250.44456451 382.82078637 -251.03073059 383.409395 -251.63465928 384.01584025 C-261.1702797 393.59161869 -270.7000221 403.17323201 -280.22856213 412.75605509 C-290.02845275 422.61129275 -299.83789154 432.45695964 -309.65547264 442.29457444 C-315.70421642 448.35640404 -321.7448285 454.42611841 -327.77527575 460.5061511 C-331.89747469 464.66095853 -336.02859235 468.80675334 -340.1669677 472.9454482 C-342.55573962 475.3349895 -344.94015394 477.72850798 -347.31388664 480.13299751 C-349.88407727 482.73231835 -352.46900355 485.31600728 -355.05838013 487.89619446 C-356.18802663 489.04973363 -356.18802663 489.04973363 -357.34049428 490.22657663 C-358.0330204 490.91038091 -358.72554653 491.5941852 -359.4390583 492.29871082 C-360.03446517 492.89710044 -360.62987204 493.49549005 -361.24332154 494.11201268 C-363 495.25 -363 495.25 -365.05556667 495.03235596 C-367.85004123 493.90798013 -370.22366117 492.32577302 -372.75 490.6875 C-413.23559145 465.1844021 -462.72934354 455.39318395 -510 454.25 C-510.79696289 454.22808594 -511.59392578 454.20617187 -512.41503906 454.18359375 C-558.04620849 453.086251 -603.98050227 460.6888665 -647.69433594 473.49291992 C-648.35887283 473.68423996 -649.02340973 473.87556 -649.70808411 474.07267761 C-651.49848906 474.58960169 -653.28540091 475.11858158 -655.07202148 475.6484375 C-657.9936909 476.24870378 -659.23006864 476.06954183 -662 475.25 C-629.45770788 442.67345911 -596.91421081 410.09812237 -564.36408997 377.52940369 C-563.88206862 377.04710622 -563.40004727 376.56480876 -562.90341921 376.06789622 C-552.42690471 365.58539541 -541.95016715 355.10311757 -531.47319992 344.62106926 C-526.33503776 339.4804125 -521.19692487 334.3397065 -516.05883789 329.19897461 C-515.5475452 328.6874204 -515.0362525 328.17586618 -514.50946609 327.64881033 C-497.9475001 311.07832699 -481.38878817 294.50459643 -464.83176692 277.92917248 C-447.81227421 260.89079749 -430.78949132 243.85571646 -413.76258246 226.82475248 C-411.35571503 224.41730877 -408.9488851 222.00982757 -406.54207802 219.60232353 C-406.06839906 219.12850972 -405.59472009 218.65469592 -405.10668722 218.16652411 C-397.96375731 211.02138003 -390.82371197 203.87336188 -383.68523216 196.72377205 C-375.55795635 188.58389321 -367.42732441 180.44738594 -359.29227676 172.31527401 C-355.14264519 168.16692256 -350.99464755 164.01697148 -346.85102654 159.86261559 C-343.05337509 156.05519773 -339.25108681 152.25247392 -335.44514326 148.45334547 C-334.07308595 147.08212989 -332.70270177 145.70923755 -331.33421995 144.33445359 C-323.86274732 136.83059371 -316.32263304 129.81325565 -308 123.25 C-306.83631982 122.25471599 -305.6781023 121.25291006 -304.53125 120.23828125 C-295.14239104 111.93754514 -285.18270248 104.54414807 -275 97.25 C-274.18724609 96.66428223 -273.37449219 96.07856445 -272.53710938 95.47509766 C-193.27563862 38.48427446 -98.47797979 0.05606354 0 0 Z " fill="#8899A6" transform="translate(1484,69.75)"/>
<path d="M0 0 C0.81998474 -0.00067474 1.63996948 -0.00134949 2.48480225 -0.00204468 C95.01496927 0.11736493 182.65917215 36.53435348 254.0625 94.25 C255.00480469 95.00925781 255.94710938 95.76851562 256.91796875 96.55078125 C259.64669288 98.76762351 262.35821299 101.00342024 265.0625 103.25 C265.56604004 103.66717285 266.06958008 104.0843457 266.58837891 104.51416016 C276.91192059 113.08482734 286.95932546 121.96384213 296.34301758 131.56445312 C298.0985927 133.28538038 299.92416696 134.87266379 301.796875 136.46484375 C305.95675889 140.08646258 309.75303232 143.9571543 313.5 148 C314.47876099 149.0504248 314.47876099 149.0504248 315.47729492 150.12207031 C319.82586657 154.82398701 323.97817865 159.61835678 327.96875 164.62890625 C330.21852224 167.44531888 332.54316781 170.18874212 334.875 172.9375 C353.49656755 195.25186158 369.64858112 220.04325957 384.0625 245.25 C384.73031494 246.41644043 384.73031494 246.41644043 385.41162109 247.60644531 C388.36186725 252.78564779 391.23913846 258.00065708 394.0625 263.25 C394.43342773 263.93449219 394.80435547 264.61898438 395.18652344 265.32421875 C396.22307224 267.25016927 397.24031319 269.18485786 398.25 271.125 C398.82105469 272.21554687 399.39210938 273.30609375 399.98046875 274.4296875 C401.16738048 277.52337078 401.16772105 278.24609021 400.0625 281.25 C398.82490975 282.86248708 398.82490975 282.86248708 397.22761631 284.4596138 C396.62074783 285.07368882 396.01387935 285.68776385 395.38862091 286.32044721 C394.71587299 286.98582084 394.04312507 287.65119448 393.34999084 288.33673096 C392.64000944 289.05068677 391.93002804 289.76464258 391.19853204 290.50023341 C388.80880838 292.89961011 386.40847139 295.28808031 384.00805664 297.67675781 C382.29625939 299.39098199 380.5851082 301.10585153 378.8745575 302.82131958 C374.70409492 307.00022764 370.52666787 311.17209258 366.34591491 315.34069923 C361.48085516 320.19214923 356.62342393 325.05120709 351.76622372 329.91052374 C343.10244772 338.57749036 334.43126013 347.23700431 325.75610352 355.89257812 C317.33106316 364.29860518 308.91201751 372.71057879 300.49926758 381.12890625 C291.34402839 390.29019724 282.18569418 399.44837205 273.02174085 408.60094714 C272.04548828 409.57599238 271.06923638 410.5510383 270.09298515 411.5260849 C269.37241699 412.24574775 269.37241699 412.24574775 268.6372919 412.97994925 C265.2456765 416.36767884 261.85620934 419.75754881 258.46748543 423.14817047 C253.91125017 427.70674393 249.34961398 432.25986774 244.78427315 436.80932236 C243.10469643 438.48463894 241.42683576 440.16167785 239.75077438 441.84051132 C237.47242613 444.12205706 235.18807556 446.3974118 232.9019928 448.67120361 C232.2314756 449.34550014 231.5609584 450.01979666 230.87012249 450.71452641 C230.26064626 451.31817045 229.65117004 451.92181448 229.02322483 452.54375076 C228.49595564 453.07015317 227.96868646 453.59655558 227.42543942 454.13890958 C226.0625 455.25 226.0625 455.25 224.0625 455.25 C224.01089722 454.42314697 224.01089722 454.42314697 223.95825195 453.57958984 C221.07135753 410.1553267 204.5356497 370.69030713 178.0625 336.25 C177.44640869 335.44103271 177.44640869 335.44103271 176.81787109 334.61572266 C171.27779346 327.35638033 165.55086167 320.40228868 159.3359375 313.70703125 C157.32065584 311.52900347 155.36977564 309.31390714 153.4375 307.0625 C146.26916589 298.8843082 138.42405698 292.15570603 129.80126953 285.57861328 C128.22353479 284.37304849 126.65607781 283.15406261 125.08984375 281.93359375 C102.99285441 264.94292382 78.24507142 251.756767 52.0625 242.25 C50.8353125 241.78335938 49.608125 241.31671875 48.34375 240.8359375 C0.99370826 223.76059059 -51.5685399 227.16242666 -96.9375 248.25 C-107.77974275 253.44819676 -118.18468275 259.19154083 -127.9375 266.25 C-128.54126465 266.68538086 -129.1450293 267.12076172 -129.76708984 267.56933594 C-142.25996258 276.62286271 -154.2092181 286.21805534 -164.98046875 297.2890625 C-167.33362032 299.64691098 -169.82799193 301.77944242 -172.37890625 303.91796875 C-175.4842442 306.57190419 -178.27241856 309.37851398 -180.75 312.625 C-182.62438166 314.87425799 -184.4104799 316.58675012 -186.62480789 318.4726913 C-190.62188122 321.93664205 -194.39547514 325.56689767 -198.12807369 329.31193924 C-198.80826918 329.99038169 -199.48846466 330.66882414 -200.18927214 331.36782545 C-202.45739535 333.63131384 -204.72196802 335.89832032 -206.98655701 338.16534424 C-208.63263309 339.80955109 -210.27892502 341.45354186 -211.92541367 343.09733558 C-216.4414468 347.60725832 -220.95435755 352.12029416 -225.46674645 356.63386273 C-229.8362113 361.00399727 -234.20849958 365.37130616 -238.58045021 369.7389536 C-248.6242088 379.77305218 -258.66454797 389.81056764 -268.70376425 399.84921059 C-276.45735356 407.60234 -284.21174252 415.35466875 -291.96669197 423.10643768 C-294.2005723 425.33942045 -296.43444876 427.57240709 -298.66832405 429.80539489 C-299.22370208 430.36055187 -299.77908012 430.91570885 -300.35128778 431.48768878 C-315.96821228 447.09846102 -331.58403473 462.71033497 -347.1976614 478.32440567 C-348.08027062 479.20703826 -348.08027062 479.20703826 -348.98071034 480.10750182 C-351.96286112 483.08973571 -354.94500394 486.07197757 -357.927145 489.05422118 C-358.51938843 489.64648456 -359.11163186 490.23874794 -359.72182206 490.84895869 C-360.91948171 492.04665878 -362.11714068 493.24435954 -363.31479897 494.44206099 C-381.94840167 513.07627644 -400.58605989 531.70642729 -419.22680664 550.33349609 C-440.17902172 571.2703434 -461.12784895 592.21057258 -482.07191712 613.15556979 C-484.30609724 615.38982454 -486.54029032 617.62406633 -488.77449226 619.85829926 C-489.3245905 620.40840914 -489.87468873 620.95851903 -490.4414566 621.52529891 C-499.2850233 630.36889635 -508.13179112 639.20928476 -516.97968147 648.0485562 C-525.87483046 656.93521947 -534.76621757 665.82563307 -543.65383988 674.71982393 C-548.46649966 679.53584896 -553.28084992 684.35015317 -558.09952736 689.16015816 C-562.5135576 693.56632589 -566.92291767 697.97711247 -571.32865597 702.3915709 C-572.92036181 703.98481225 -574.51374661 705.57637847 -576.10900646 707.16606131 C-584.19175338 715.22242718 -591.88600198 723.26529372 -598.9375 732.25 C-600.32787156 733.87967562 -601.72315452 735.50518367 -603.125 737.125 C-613.92867151 750.3505103 -622.99111218 765.15922449 -630.9375 780.25 C-631.44289307 781.19721924 -631.44289307 781.19721924 -631.95849609 782.16357422 C-653.94249883 823.60021578 -666.22209662 874.71005632 -654.9375 921.25 C-654.65543701 922.49233398 -654.65543701 922.49233398 -654.36767578 923.75976562 C-645.74030149 961.17937156 -626.19993736 994.80106983 -600.203125 1022.80078125 C-598.22992483 1024.93387867 -596.32455297 1027.10358987 -594.4375 1029.3125 C-587.81498157 1036.89435522 -580.66228966 1043.6988205 -572.7734375 1049.94921875 C-570.4944497 1051.79814963 -568.2985093 1053.68925375 -566.10546875 1055.63671875 C-525.60466464 1091.21521987 -474.10627581 1106.80192503 -420.9375 1104.25 C-375.07095482 1100.71619946 -329.74528593 1079.53334806 -293.9375 1051.25 C-293.10347656 1050.60804687 -292.26945313 1049.96609375 -291.41015625 1049.3046875 C-277.51967353 1038.46440557 -265.31520379 1025.7431205 -252.921875 1013.26855469 C-251.02539925 1011.36359821 -249.12870145 1009.45886561 -247.23167419 1007.55445862 C-243.69252193 1004.00100097 -240.15434251 1000.4465794 -236.61733645 996.89098546 C-229.67866893 989.91585798 -222.73364904 982.94708612 -215.78637695 975.98052979 C-214.68934024 974.88038312 -213.59230739 973.7802326 -212.49527836 972.68007827 C-210.83383997 971.01391515 -209.17239838 969.34775524 -207.51094228 967.68160979 C-201.27104832 961.42404913 -195.0318752 955.16577023 -188.79345703 948.90673828 C-188.22410364 948.33550784 -187.65475025 947.76427739 -187.06814373 947.17573693 C-177.80913755 937.8857335 -168.55750312 928.58841778 -159.30804133 919.28891286 C-149.79757404 909.72742846 -140.2776274 900.17545515 -130.7491703 890.63189816 C-124.87747385 884.75022565 -119.01360693 878.86095964 -113.15950388 872.96177503 C-109.15696346 868.92975887 -105.14543088 864.90683994 -101.12657744 860.89108375 C-98.8066814 858.57241024 -96.49252508 856.2484686 -94.18627739 853.91620827 C-91.69042477 851.39344724 -89.1798476 848.88634922 -86.66479492 846.38275146 C-85.9336787 845.63638892 -85.20256248 844.89002637 -84.44929123 844.12104678 C-83.77643208 843.45752617 -83.10357292 842.79400556 -82.4103241 842.11037827 C-81.83205966 841.52967315 -81.25379522 840.94896804 -80.65800762 840.35066581 C-78.9375 839.25 -78.9375 839.25 -76.88744068 839.47332597 C-74.08643351 840.58898531 -71.71613939 842.17273512 -69.1875 843.8125 C-19.88069814 874.872345 42.36764833 883.01474831 99.5625 879.5 C100.26770782 879.45676605 100.97291565 879.4135321 101.69949341 879.36898804 C137.0297361 877.14356573 171.32817298 870.61469614 205.35083008 861.00708008 C206.0406749 860.81576004 206.73051971 860.62444 207.44126892 860.42732239 C209.30523097 859.90957025 211.16616493 859.38095131 213.02685547 858.8515625 C216.00758499 858.2608823 217.24900604 858.41447497 220.0625 859.25 C187.76236765 891.56725289 155.46163509 923.88390579 123.15759277 956.19725037 C122.67938647 956.67559473 122.20118016 957.1539391 121.70848275 957.64677874 C111.31545129 968.04280321 100.9223084 978.43871626 90.52905074 988.83451459 C85.43210685 993.9327058 80.33518758 999.03092163 75.23828125 1004.12915039 C74.73108081 1004.63648159 74.22388036 1005.1438128 73.70131021 1005.66651767 C57.26524808 1022.10684018 40.83081192 1038.54878693 24.39721931 1054.99157791 C7.50777673 1071.89045682 -9.38330716 1088.78769347 -26.27645421 1105.6828692 C-28.66318569 1108.06988883 -31.04989842 1110.45692719 -33.43659973 1112.84397697 C-33.90633151 1113.31377618 -34.37606329 1113.78357538 -34.86002937 1114.26761092 C-42.88373858 1122.29257413 -50.90541253 1130.31956907 -58.92661816 1138.34703463 C-66.05844128 1145.48414025 -73.19210343 1152.61940429 -80.327218 1159.75321937 C-84.44482359 1163.87018395 -88.56161008 1167.987959 -92.67621613 1172.1079216 C-96.44441269 1175.8809879 -100.21491695 1179.65173207 -103.98725682 1183.42065572 C-105.35031118 1184.78328791 -106.71252215 1186.14676439 -108.07379407 1187.51117725 C-114.52035025 1193.97174001 -120.93459595 1200.38448701 -127.9375 1206.25 C-128.947537 1207.12654239 -129.95668293 1208.00411285 -130.96484375 1208.8828125 C-138.978503 1215.74551666 -147.24252128 1222.22081247 -155.6796875 1228.55419922 C-157.18219491 1229.68270446 -158.68221135 1230.81453402 -160.1796875 1231.94970703 C-231.61996427 1286.07066065 -317.31530264 1324.26757758 -406.9375 1333.25 C-408.32171143 1333.39356934 -408.32171143 1333.39356934 -409.73388672 1333.54003906 C-420.61299242 1334.52920983 -431.52239655 1334.49364028 -442.4375 1334.5 C-444.00185287 1334.50101212 -444.00185287 1334.50101212 -445.59780884 1334.50204468 C-462.55865381 1334.4846646 -479.14040271 1333.78805039 -495.9375 1331.25 C-497.63616211 1331.00056641 -497.63616211 1331.00056641 -499.36914062 1330.74609375 C-536.09727693 1325.19679504 -571.35582551 1314.01249889 -604.9375 1298.25 C-605.93491211 1297.78223145 -606.93232422 1297.31446289 -607.95996094 1296.83251953 C-629.25298178 1286.74033442 -649.64203498 1274.78023246 -668.9375 1261.25 C-669.63359375 1260.76354004 -670.3296875 1260.27708008 -671.046875 1259.77587891 C-681.43367679 1252.48287319 -691.42012783 1244.80337118 -701.18457031 1236.69873047 C-703.68761324 1234.63005961 -706.22170376 1232.60017785 -708.75 1230.5625 C-713.44177121 1226.72313768 -717.92757411 1222.68797632 -722.38671875 1218.58203125 C-724.53825151 1216.61500972 -726.72041973 1214.70446871 -728.9375 1212.8125 C-732.81675277 1209.45207734 -736.40344606 1205.81625678 -740.00292969 1202.16308594 C-742.30981584 1199.83359909 -744.61273776 1197.59339535 -747.1875 1195.5625 C-750.08822397 1193.12325484 -752.37170386 1190.49956924 -754.8203125 1187.62109375 C-757.41663857 1184.71340016 -760.16342772 1181.98688518 -762.9375 1179.25 C-767.48728291 1174.74405868 -771.79960035 1170.14024504 -775.9375 1165.25 C-776.83747941 1164.21261915 -777.73862757 1163.17625167 -778.640625 1162.140625 C-785.67382171 1154.04234889 -792.40507912 1145.75611412 -798.9375 1137.25 C-799.40623535 1136.64494629 -799.8749707 1136.03989258 -800.35791016 1135.41650391 C-843.84425955 1079.18593165 -873.39728479 1014.4833941 -884.9375 944.25 C-885.11684082 943.1878125 -885.29618164 942.125625 -885.48095703 941.03125 C-890.98674669 906.73898311 -890.50468753 868.52214954 -884.9375 834.25 C-884.68009033 832.57405762 -884.68009033 832.57405762 -884.41748047 830.86425781 C-878.61918691 793.58729276 -867.94760836 756.88281764 -852.9375 722.25 C-852.45047607 721.11111328 -852.45047607 721.11111328 -851.95361328 719.94921875 C-831.56196134 672.49657573 -804.37848269 627.74941584 -771.37744141 587.99414062 C-769.34995602 585.53833263 -767.36744304 583.04677132 -765.375 580.5625 C-754.82030518 567.73803431 -742.94336072 556.11038655 -731.20603943 544.38482666 C-729.42552469 542.60244071 -727.64522541 540.81983951 -725.86512142 539.03704333 C-722.01365618 535.18075876 -718.16066487 531.32600924 -714.30627251 527.47265053 C-708.57452635 521.74243768 -702.8456445 516.0093674 -697.11727542 510.27577881 C-686.28990924 499.43877188 -675.45914498 488.60516541 -664.62724452 477.77269086 C-656.26306021 469.40804614 -647.89967756 461.04260066 -639.53685188 452.6765976 C-637.12544026 450.26428838 -634.71402475 447.85198306 -632.30260807 445.43967891 C-631.40328386 444.54002313 -631.40328386 444.54002313 -630.48579149 443.62219248 C-613.6371897 426.76744226 -596.7874902 409.91379007 -579.9355917 393.06233597 C-579.30104852 392.42780837 -578.66650534 391.79328077 -578.01273358 391.13952506 C-574.79692425 387.92379883 -571.58110695 384.70808057 -568.36528789 381.49236408 C-567.40734927 380.53445538 -567.40734927 380.53445538 -566.43005836 379.55719498 C-565.13860574 378.2657828 -563.84715244 376.9743713 -562.55569846 375.68296048 C-542.45046874 355.57834389 -522.34930792 335.46966684 -502.2512207 315.35791016 C-479.65053428 292.74185833 -457.04646824 270.12919165 -434.4376331 247.52128577 C-432.02652125 245.11024856 -429.61542237 242.69919838 -427.20433235 240.28813934 C-426.31387505 239.39769953 -426.31387505 239.39769953 -425.40542872 238.48927102 C-415.86194185 228.9458149 -406.32166365 219.39915745 -396.78250278 209.85137751 C-387.19631855 200.25671087 -377.60638814 190.66580115 -368.01267677 181.07866082 C-362.31731824 175.38699318 -356.62472841 169.6925894 -350.9361267 163.99416841 C-346.68397011 159.73529388 -342.42658203 155.48168909 -338.16716231 151.23007724 C-336.44822945 149.51268111 -334.73097537 147.79360266 -333.01559918 146.07265404 C-324.63602209 137.66766634 -316.32938149 129.52925803 -306.9375 122.25 C-305.8465152 121.32798868 -304.76205094 120.39814388 -303.6875 119.45703125 C-294.52371558 111.4777701 -284.80222305 104.3343333 -274.9375 97.25 C-274.1232959 96.66283203 -273.3090918 96.07566406 -272.47021484 95.47070312 C-193.4251102 38.63986324 -98.25918188 0.07384144 0 0 Z " fill="#8899A6" transform="translate(949.9375,595.75)"/>
</svg>
